# xmcd
#
# Track frame offsets:
#	150
#	16614
#	33000
#	45542
#	60231
#	75538
#	94955
#	104494
#	121593
#	129306
#
# Disc length: 2013 seconds
#
# Revision: 2
# Processed by: cddbd v1.5.2PL0 Copyright (c) Steve Scherf et al.
# Submitted via: EasyCDDAExtractor 10.0.2.1
#
DISCID=6607db0a
DTITLE=Bjelleklang - Dæng dæng
DYEAR=1900
DGENRE=Blues
TTITLE0=Kamel fra Lillestrøm
TTITLE1=Hyttetur
TTITLE2=Bildilla
TTITLE3=Neger på rasta
TTITLE4=For meg sjøl ei stønn
TTITLE5=Kyss
TTITLE6=Jeg vil ha en liten hund
TTITLE7=Bikkjemøkk
TTITLE8=Bedre føre var enn etter
TTITLE9=Hvorfor må jeg snakke om det
EXTD=
EXTT0=
EXTT1=
EXTT2=
EXTT3=
EXTT4=
EXTT5=
EXTT6=
EXTT7=
EXTT8=
EXTT9=
PLAYORDER=
